<svg xmlns="http://www.w3.org/2000/svg" width="1600" height="1000" viewBox="0 0 1600 1000" fill="none">
  <defs>
    <linearGradient id="bg" x1="0" y1="0" x2="1600" y2="1000" gradientUnits="userSpaceOnUse">
      <stop stop-color="#17202A"/>
      <stop offset="1" stop-color="#0A0F14"/>
    </linearGradient>
    <linearGradient id="land" x1="0" y1="0" x2="1" y2="1">
      <stop stop-color="#B48C52"/>
      <stop offset="1" stop-color="#6F5530"/>
    </linearGradient>
  </defs>
  <rect width="1600" height="1000" fill="url(#bg)"/>
  <g opacity="0.28" stroke="#D8B06B" stroke-width="2">
    <path d="M0 160H1600"/>
    <path d="M0 320H1600"/>
    <path d="M0 480H1600"/>
    <path d="M0 640H1600"/>
    <path d="M0 800H1600"/>
    <path d="M200 0V1000"/>
    <path d="M400 0V1000"/>
    <path d="M600 0V1000"/>
    <path d="M800 0V1000"/>
    <path d="M1000 0V1000"/>
    <path d="M1200 0V1000"/>
    <path d="M1400 0V1000"/>
  </g>
  <path d="M205 271C284 179 468 162 605 211C685 239 729 295 790 345C874 415 988 422 1047 520C1091 592 1078 698 1018 761C930 853 769 875 643 867C508 858 369 819 282 718C204 626 149 469 205 271Z" fill="url(#land)" opacity="0.93"/>
  <path d="M1059 212C1129 174 1266 183 1348 230C1425 274 1463 358 1446 438C1430 513 1374 562 1315 609C1254 658 1193 734 1119 726C1042 718 1001 634 975 566C948 495 916 420 945 347C968 291 1008 245 1059 212Z" fill="url(#land)" opacity="0.93"/>
  <path d="M473 458C548 420 638 437 698 491C740 529 780 594 758 648C734 708 656 716 593 714C523 712 427 713 394 651C365 597 407 491 473 458Z" fill="#2A3945" opacity="0.62"/>
  <text x="50%" y="92" text-anchor="middle" fill="#F4E0B8" font-size="46" font-family="Georgia, serif">Mapa placeholder</text>
  <text x="50%" y="138" text-anchor="middle" fill="#D3C1A1" font-size="22" font-family="Arial, sans-serif">Sustituye este SVG por tu imagen real manteniendo el nombre si quieres</text>
</svg>
